PathFileType	4	(X/Y/Z)	Patient4_TMGait_0pt2_02_left_02.trc.trc
DataRate	CameraRate	NumFrames	NumMarkers	Units	OrigDataRate	OrigDataStartFrame	OrigNumFrames
42.813455657492	42.813455657492	5	33	mm	42.813455657492	106	       141
Frame#	Time	R.Midfoot.Superior			Sacral			L.Shoulder			Chest			R.Shoulder			Neck			R.ASIS			L.ASIS			R.Thigh.Superior			R.Thigh.Lateral			R.Thigh.Inferior			R.Patella			L.Thigh.Superior			L.Thigh.Lateral			L.Thigh.Inferior			L.Patella			L.Shank.Superior			L.Shank.Lateral			L.Shank.Inferior			R.Shank.Superior			R.Shank.Lateral			R.Shank.Inferior			R.Heel			R.Midfoot.Lateral			R.Toe			L.Heel			L.Midfoot.Lateral			L.Midfoot.Superior			L.Toe			L.Elbow			L.Wrist			R.Elbow			R.Wrist			
		X1	Y1	Z1	X2	Y2	Z2	X3	Y3	Z3	X4	Y4	Z4	X5	Y5	Z5	X6	Y6	Z6	X7	Y7	Z7	X8	Y8	Z8	X9	Y9	Z9	X10	Y10	Z10	X11	Y11	Z11	X12	Y12	Z12	X13	Y13	Z13	X14	Y14	Z14	X15	Y15	Z15	X16	Y16	Z16	X17	Y17	Z17	X18	Y18	Z18	X19	Y19	Z19	X20	Y20	Z20	X21	Y21	Z21	X22	Y22	Z22	X23	Y23	Z23	X24	Y24	Z24	X25	Y25	Z25	X26	Y26	Z26	X27	Y27	Z27	X28	Y28	Z28	X29	Y29	Z29	X30	Y30	Z30	X31	Y31	Z31	X32	Y32	Z32	X33	Y33	Z33	

106	6.622500000000	921.406513254123	96.492438270580	579.390896309306	746.672235148754	994.817767288653	552.357485103579	944.569028041700	1406.253909055512	345.586227133528	1044.516309057622	1342.972069520301	509.925314781784	965.176330761143	1427.408142923104	680.716895609787	926.247571839741	1477.053072564119	499.292320557259	979.310615654538	927.621957018925	663.245936335816	956.622216568571	940.505255144755	391.025421066613	1027.259251541286	729.710710646890	616.987135268065	952.784774317741	611.659314349366	670.476811834977	1028.157900950526	567.711443247036	582.922437419524	1030.631352689488	471.085344526825	583.204689221726	1032.664082299139	756.299824985103	414.010343915185	980.342025118828	633.266075573441	329.746843938270	1082.008471401185	565.194016977004	389.009701618237	1089.387158238890	475.650603726298	375.220538560355	1018.654077958972	413.917295488845	362.879203191716	874.556181432128	380.857198094821	312.517920241741	858.220193091654	247.590869546103	356.646525739907	981.828061417701	385.526853819168	585.564667063490	895.328238574018	292.889152265191	647.578457061139	911.310631308341	197.377694232489	575.445211430666	747.338789738366	48.198872526997	547.097967872687	832.266365036078	39.018339788648	618.766936820398	1039.953136313335	39.194634944042	603.997830426753	664.254376672591	180.335973632955	391.145567581114	721.059318518501	143.396900204414	305.820864009197	827.171627896839	152.818428813513	325.568919804742	907.676638975907	46.697918396955	284.929027900913	867.121566882800	1053.422396192060	255.282112920205	868.896364398583	793.778284739316	265.580110999228	980.081744316113	1087.019184759115	826.959920273764	1190.544140579093	937.536198008028	822.118387666250	
107	6.645857142857	916.895404355658	96.586141161558	579.699855388203	745.157251682988	994.734405696384	556.056910644459	939.150937441968	1407.210457378642	347.921037168125	1042.240432602097	1342.962084070491	510.009832060228	966.512611149860	1427.033072063859	682.592707498184	924.010531081379	1477.262436465488	502.039334400930	978.833372010046	927.394732986065	664.035205349825	953.259825332673	941.151638727732	392.021523300335	1025.682125241232	729.018177743995	617.884575886886	950.931259050895	611.303445137857	671.466543815391	1025.693095910611	567.199551313163	583.433013127928	1027.752239576138	470.591069641196	583.537176069612	1033.159328012700	760.315065281245	416.708243759657	984.747931397540	635.866787906769	332.053503384433	1087.548342020479	570.113315241822	392.106988709601	1097.017402422787	480.451064042230	377.950887917682	1027.180797641288	417.270960646592	365.157574783651	883.514400957499	382.338993360754	314.889867486808	869.172490339816	248.819218089158	358.632487166735	978.570537682189	385.140015178862	585.879882837460	891.919072873551	292.734371498273	647.979681615104	907.238069783521	197.304989313510	575.695048528697	742.678635141710	48.583723315627	547.342614510865	827.610808550822	39.154233003556	618.961582371638	1035.270901879088	39.125164832624	604.044162870476	676.568698693936	178.542263925878	393.297294252871	733.552730888928	143.444903383437	307.414391297676	839.494415207107	154.048806970351	327.142099639575	921.305672881469	48.844935794528	285.005080277667	846.373002134333	1058.327157064557	259.316881946843	833.494382212156	798.930697922832	274.349818087842	1000.578120853529	1089.147264777515	829.722173048560	1223.599128580413	960.055088169520	819.023976599139	
108	6.669214285714	912.362037120619	96.689919331572	579.994603883758	743.849024742661	995.265307291629	559.495008764782	933.692962705765	1408.816557440116	350.018399278700	1039.980206470149	1343.566877572724	509.697733983514	967.995517912960	1427.321119885678	683.977594813488	921.756421436327	1478.008865152536	504.438507998958	978.490234021136	927.587308286328	664.369828767830	949.915047810411	942.460102592786	392.647251264552	1023.714909957362	728.570298583767	618.312916050447	948.516972624243	611.357232997473	672.203329297438	1022.425541333416	566.905912976586	583.653214617102	1023.929031778299	470.436405706772	583.674386041769	1032.649834939269	764.213283973303	418.796798665872	987.300968803489	638.682882068826	333.880077697644	1090.724775726219	574.774982590552	394.681061730902	1102.162472737890	485.389150544777	380.261625712608	1033.938780381769	420.756273239484	366.829306773342	891.542817758934	382.259439589966	316.324421862352	880.918782667480	248.423843920833	359.528458646975	974.552333839037	385.105959992615	586.072403553350	887.969853403913	292.803521005864	648.261257525474	902.868642784923	197.431828020916	575.903179155502	738.005061874746	49.010286016330	547.584762766938	822.949666509028	39.320068701268	619.156179285166	1030.577881591141	39.065179311584	604.086782469219	690.943250285430	172.753643050024	394.000381717988	748.576761218107	140.177675624065	307.720494128358	853.979547993096	153.292963243123	327.565960196100	938.317461511791	50.531735981633	284.269565758228	826.593372017237	1064.569068748132	262.857571046337	801.210265078135	806.232347938473	283.176473951389	1020.852595987289	1093.058879664258	831.569857292279	1254.173538788211	985.140769807592	814.658886326591	
109	6.692571428571	907.794961411747	96.787339089331	580.257967020078	742.725814142715	996.345262655131	562.726142158780	928.239948163926	1410.935407834680	351.881512788362	1037.771357247333	1344.678114913543	509.002892170910	969.661834206964	1428.193016916208	684.869817392705	919.537113571596	1479.197516024452	506.487990447842	978.278879708067	928.103365924473	664.263858789657	946.522150199484	944.342736520186	392.928081799044	1021.385151972891	728.322424949756	618.281736312225	945.610874511286	611.756480747094	672.709030464421	1018.437451234248	566.790309715431	583.608632370368	1019.258033847747	470.569661679801	583.643642222640	1031.137819019164	767.871695315404	420.197550413995	987.960869590356	641.569757977096	335.145140937934	1091.558730885709	579.010112530344	396.591456740668	1104.828258778377	490.299916239121	381.996615448420	1038.909407609717	424.255081890785	367.798457509381	898.683846215525	380.628200803183	316.739751784861	893.413378087829	246.520560731021	359.294602792882	969.853721597619	385.372586099837	586.170552497801	883.528600822596	293.052104057892	648.445461913229	898.228601275817	197.717729395178	576.077621329083	733.314714949865	49.441604317758	547.817847297778	818.280490930336	39.495419086831	619.345526684607	1025.873845505600	39.012108461186	604.125495377268	707.372026134559	163.367529190615	393.248562909690	766.054975465157	133.879551990780	306.746469084064	870.534199279537	150.700579888842	326.827854867376	958.448183042616	51.740322799112	282.760658436788	807.969921526848	1071.787827050892	266.081419910916	772.185523799282	815.004494146950	291.986608455399	1040.672004529094	1098.594366079996	832.527452696777	1281.956603993928	1012.235811845219	809.173992977830	
110	6.715928571429	903.180144110222	96.860285991481	580.470970119988	741.745890434093	997.862127459995	565.775746441563	922.838026886753	1413.396758660920	353.512129197546	1035.637108988119	1346.145871705733	507.945556662950	971.523470436869	1429.513340833279	685.280496827991	917.402927944205	1480.698758087389	508.196586171698	978.177172185080	928.823371827317	663.734399310395	943.028627350989	946.657460758175	392.880785313988	1018.730813477542	728.209658103992	617.819060835336	942.293223955506	612.412611840689	673.003108324816	1013.838551680251	566.794892263489	583.329382222250	1013.869224565125	470.918396307749	583.469097162359	1028.665340430788	771.167645661404	420.851101370423	986.771550642707	644.373598760968	335.779142214932	1090.191125369306	582.678064306537	397.705032423749	1105.148801520841	495.032799620872	383.019157026388	1042.163773052329	427.659820144151	368.014454537736	905.036569887595	377.568338492488	316.122818725673	906.547469477126	243.370330519487	358.000772726968	964.585956879934	385.866698301914	586.196884382828	878.664363999031	293.420693941085	648.552782065144	893.352519204749	198.109240807767	576.223122174158	728.603736830718	49.832087247331	548.035781068572	813.599777011763	39.655650924897	619.524377972835	1021.157991661539	38.966252147588	604.159370462114	725.716998069055	151.080843113010	391.172334670047	785.764390255795	125.090506798735	304.637329989848	888.925462841829	146.606423832577	325.049312845880	981.225393617926	52.562008262322	280.655476813133	790.647885152443	1079.574516214418	269.162583319286	746.431649572301	824.571259243833	300.707430049303	1059.821554318952	1105.486347264818	832.628307511953	1306.754663460479	1040.666347175435	802.747602527980	
